 <svg width="902" height="908" viewBox="0 0 902 908" fill="none" xmlns="http://www.w3.org/2000/svg">
<path d="M770 132.788C685.055 47.3365 571.389 0 451 0C330.611 0 217.556 47.3365 132 132.788C47.0558 218.24 0 332.586 0 453.694C0 574.802 47.0558 688.533 132 774.6C216.945 860.052 330.611 907.389 451 907.389C571.389 907.389 684.444 860.052 770 774.6C854.944 689.148 902 574.802 902 453.694C902 332.586 854.944 218.855 770 132.788ZM568.945 809.027C521.889 791.813 492.556 723.575 484 612.303L482.167 574.802C477.889 494.883 477.889 413.12 482.167 333.201L484 295.7C492.556 184.428 522.5 116.19 568.945 98.9765C614.778 81.7632 678.333 112.501 752.889 186.888C768.167 202.257 782.222 219.47 794.444 237.913C834.167 302.463 854.944 377.464 854.944 453.694C854.944 529.925 834.167 604.926 795.056 669.476C782.833 688.533 768.778 705.747 753.5 720.501C677.722 795.502 614.167 825.625 568.945 809.027ZM420.445 574.802L418.611 612.303C410.055 723.575 380.111 791.813 333.667 809.027C287.833 826.24 224.278 795.502 149.722 721.116C134.444 705.747 120.389 688.533 108.167 670.091C68.4445 605.541 47.667 530.539 47.667 454.309C47.667 378.078 68.4446 303.078 107.556 238.528C119.778 219.47 133.833 202.257 149.111 187.502C210.222 126.641 264 94.6733 306.778 94.6733C315.944 94.6733 325.111 95.9027 333.055 98.9765C380.111 116.19 409.444 184.428 418 295.7L419.833 333.201C424.111 413.12 424.111 494.269 420.445 574.802Z" fill="#1751A6"/>
</svg>