<svg width="734" height="743" viewBox="0 0 734 743" fill="none" xmlns="http://www.w3.org/2000/svg">
<path d="M626.585 108.732C557.462 38.7607 464.966 0 367 0C269.034 0 177.035 38.7607 107.415 108.732C38.2915 178.702 0 272.333 0 371.5C0 470.667 38.2915 563.794 107.415 634.268C176.538 704.239 269.034 743 367 743C464.966 743 556.965 704.239 626.585 634.268C695.708 564.297 734 470.667 734 371.5C734 272.333 695.708 179.206 626.585 108.732ZM462.977 662.458C424.686 648.363 400.816 592.487 393.854 501.374L392.362 470.667C388.881 405.227 388.881 338.277 392.362 272.836L393.854 242.129C400.816 151.016 425.183 95.1401 462.977 81.0453C500.274 66.9504 551.992 92.1199 612.661 153.03C625.093 165.614 636.531 179.709 646.477 194.811C678.801 247.667 695.709 309.08 695.709 371.5C695.709 433.92 678.801 495.333 646.974 548.189C637.029 563.794 625.591 577.889 613.159 589.97C551.495 651.384 499.776 676.049 462.977 662.458ZM342.136 470.667L340.644 501.374C333.681 592.487 309.314 648.363 271.52 662.458C234.224 676.553 182.505 651.383 121.836 590.474C109.404 577.889 97.9662 563.794 88.0204 548.693C55.6965 495.837 38.7889 434.423 38.7889 372.003C38.7889 309.583 55.6966 248.17 87.5232 195.314C97.469 179.709 108.907 165.615 121.339 153.533C171.068 103.698 214.829 77.5217 249.64 77.5217C257.099 77.5217 264.558 78.5283 271.023 81.0453C309.314 95.1401 333.184 151.016 340.146 242.129L341.638 272.836C345.119 338.277 345.119 404.724 342.136 470.667Z" fill="black"/>
</svg>
