<svg width="16" height="16" viewBox="0 0 16 16" fill="none" xmlns="http://www.w3.org/2000/svg">
<path d="M8.78103 2H5.99998C4.7429 2 4.11436 2 3.72384 2.39052C3.33331 2.78105 3.33331 3.40959 3.33331 4.66667V11.3333C3.33331 12.5904 3.33331 13.219 3.72384 13.6095C4.11436 14 4.7429 14 5.99998 14H9.99998C11.2571 14 11.8856 14 12.2761 13.6095C12.6666 13.219 12.6666 12.5904 12.6666 11.3333V5.88562C12.6666 5.61312 12.6666 5.47687 12.6159 5.35435C12.5652 5.23184 12.4688 5.1355 12.2761 4.94281L9.72384 2.39052C9.53115 2.19784 9.43481 2.10149 9.31229 2.05075C9.18978 2 9.05353 2 8.78103 2Z" stroke="white" stroke-width="2"/>
<path d="M6 8.66675L10 8.66675" stroke="white" stroke-width="2" stroke-linecap="round"/>
<path d="M6 11.3333L8.66667 11.3333" stroke="white" stroke-width="2" stroke-linecap="round"/>
<path d="M8.66669 2V4.66667C8.66669 5.29521 8.66669 5.60948 8.86195 5.80474C9.05721 6 9.37148 6 10 6H12.6667" stroke="white" stroke-width="2"/>
</svg>
