<svg width="19" height="19" viewBox="0 0 19 19" fill="none" xmlns="http://www.w3.org/2000/svg">
<circle cx="9.49998" cy="6.33341" r="2.16667" stroke="white" stroke-width="2" stroke-linecap="round"/>
<path d="M12.2675 6.4375C12.4499 6.12168 12.7502 5.89124 13.1024 5.79685C13.4547 5.70247 13.83 5.75188 14.1458 5.93422C14.4616 6.11655 14.6921 6.41688 14.7865 6.76912C14.8808 7.12137 14.8314 7.49668 14.6491 7.8125C14.4668 8.12832 14.1664 8.35876 13.8142 8.45315C13.4619 8.54753 13.0866 8.49812 12.7708 8.31578C12.455 8.13345 12.2245 7.83312 12.1302 7.48088C12.0358 7.12863 12.0852 6.75332 12.2675 6.4375L12.2675 6.4375Z" stroke="white" stroke-width="2"/>
<path d="M4.3509 6.4375C4.53324 6.12168 4.83356 5.89124 5.18581 5.79685C5.53806 5.70247 5.91337 5.75188 6.22919 5.93422C6.545 6.11655 6.77545 6.41688 6.86984 6.76912C6.96422 7.12137 6.91481 7.49668 6.73247 7.8125C6.55014 8.12832 6.24981 8.35876 5.89756 8.45315C5.54532 8.54753 5.17 8.49812 4.85419 8.31578C4.53837 8.13345 4.30792 7.83312 4.21354 7.48088C4.11915 7.12863 4.16857 6.75332 4.3509 6.4375L4.3509 6.4375Z" stroke="white" stroke-width="2"/>
<path d="M13.3441 14.2499L12.3441 14.2398L12.3339 15.2499H13.3441V14.2499ZM16.3196 13.1625L15.3942 13.5415V13.5415L16.3196 13.1625ZM11.7015 11.6458L11.0966 10.8494L9.94006 11.7279L11.1733 12.4949L11.7015 11.6458ZM13.3212 14.054L14.2932 13.819L14.2932 13.819L13.3212 14.054ZM15.4922 13.2499H13.3441V15.2499H15.4922V13.2499ZM15.3942 13.5415C15.384 13.5167 15.3741 13.4704 15.3829 13.4138C15.3913 13.36 15.4129 13.3196 15.4329 13.2942C15.4704 13.2469 15.5004 13.2499 15.4922 13.2499V15.2499C16.0855 15.2499 16.6432 14.9875 17.0009 14.5357C17.3722 14.0669 17.5037 13.4155 17.245 12.7836L15.3942 13.5415ZM13.4583 12.0833C14.54 12.0833 15.0843 12.7846 15.3942 13.5415L17.245 12.7836C16.8045 11.7077 15.7349 10.0833 13.4583 10.0833V12.0833ZM12.3063 12.4421C12.575 12.238 12.9361 12.0833 13.4583 12.0833V10.0833C12.4923 10.0833 11.7077 10.3853 11.0966 10.8494L12.3063 12.4421ZM11.1733 12.4949C11.8614 12.9228 12.1945 13.6491 12.3492 14.2891L14.2932 13.819C14.0805 12.9393 13.5538 11.6202 12.2296 10.7966L11.1733 12.4949ZM12.3492 14.2891C12.3464 14.2774 12.3439 14.2606 12.3441 14.2398L14.344 14.26C14.3455 14.1122 14.3284 13.9644 14.2932 13.819L12.3492 14.2891Z" fill="white"/>
<path d="M7.29853 11.6457L7.82665 12.4949L9.05996 11.7279L7.90338 10.8494L7.29853 11.6457ZM2.68041 13.1625L3.60584 13.5415L3.60584 13.5415L2.68041 13.1625ZM5.65591 14.2499V15.2499H6.66606L6.65586 14.2398L5.65591 14.2499ZM5.67876 14.054L4.70677 13.819L4.70677 13.819L5.67876 14.054ZM5.54169 12.0833C6.06389 12.0833 6.42497 12.238 6.69368 12.4421L7.90338 10.8494C7.29234 10.3853 6.50775 10.0833 5.54169 10.0833V12.0833ZM3.60584 13.5415C3.91574 12.7846 4.45999 12.0833 5.54169 12.0833V10.0833C3.26514 10.0833 2.1955 11.7077 1.75498 12.7836L3.60584 13.5415ZM3.5078 13.2499C3.49961 13.2499 3.52963 13.2469 3.56707 13.2942C3.58714 13.3196 3.60874 13.36 3.6171 13.4138C3.6259 13.4704 3.61596 13.5167 3.60584 13.5415L1.75498 12.7836C1.49628 13.4155 1.62785 14.0669 1.99907 14.5357C2.35681 14.9875 2.91448 15.2499 3.5078 15.2499V13.2499ZM5.65591 13.2499H3.5078V15.2499H5.65591V13.2499ZM6.65586 14.2398C6.65607 14.2606 6.65356 14.2774 6.65075 14.2891L4.70677 13.819C4.67162 13.9644 4.65447 14.1122 4.65596 14.26L6.65586 14.2398ZM6.65075 14.2891C6.80549 13.6491 7.13864 12.9228 7.82665 12.4949L6.77041 10.7966C5.4462 11.6201 4.91948 12.9393 4.70677 13.819L6.65075 14.2891Z" fill="white"/>
<path d="M9.50002 11.0833C12.1681 11.0833 13.0378 12.8816 13.3213 14.054C13.4511 14.5908 13.0106 15.0416 12.4584 15.0416H6.54169C5.9894 15.0416 5.54898 14.5908 5.67878 14.054C5.96227 12.8816 6.83196 11.0833 9.50002 11.0833Z" stroke="white" stroke-width="2" stroke-linecap="round"/>
</svg>
