<svg width="167" height="33" viewBox="0 0 167 33" fill="none" xmlns="http://www.w3.org/2000/svg">
<path d="M27.0624 4.58804C24.077 1.63555 20.082 0 15.8508 0C11.6197 0 7.6462 1.63555 4.63927 4.58804C1.65381 7.54053 0 11.4913 0 15.6758C0 19.8603 1.65381 23.7898 4.63927 26.7635C7.62472 29.716 11.6197 31.3516 15.8508 31.3516C20.082 31.3516 24.0555 29.716 27.0624 26.7635C30.0693 23.8111 31.7017 19.8603 31.7017 15.6758C31.7017 11.4913 30.0479 7.54053 27.0624 4.58804ZM30.0264 15.6546C30.0264 18.2884 29.2961 20.8798 27.9215 23.1101C27.492 23.7686 26.998 24.3633 26.461 24.8731C23.8407 27.4433 21.607 28.5053 19.9961 27.9106C18.3423 27.3158 17.3114 24.9581 17.0107 21.1135L16.9462 19.8178C16.7959 17.0565 16.7959 14.2314 16.9462 11.4701L17.0107 10.1744C17.3114 6.32979 18.3638 3.97205 19.9961 3.3773C21.607 2.78256 23.8407 3.8446 26.461 6.41475C26.998 6.94578 27.492 7.54053 27.9215 8.17775C29.2961 10.4505 30.0264 13.0207 30.0264 15.6546ZM5.26214 24.8944C4.72518 24.3633 4.23119 23.7686 3.80163 23.1314C2.40555 20.9011 1.67529 18.3097 1.67529 15.6758C1.67529 13.0419 2.40554 10.4505 3.78014 8.22023C4.2097 7.56176 4.70371 6.96702 5.24066 6.45724C7.38847 4.35439 9.27854 3.24986 10.782 3.24986C11.1042 3.24986 11.4264 3.29234 11.7056 3.39855C13.3594 3.99329 14.3903 6.35103 14.691 10.1956L14.7555 11.4913C14.9058 14.2527 14.9058 17.0777 14.7555 19.839L14.691 21.1347C14.3903 24.9793 13.3379 27.3371 11.7056 27.9318C10.1162 28.5265 7.88246 27.4645 5.26214 24.8944Z" fill="white"/>
<path d="M48.0568 6.25345L39.9573 27.0453H43.9314L46.1345 21.0743H53.7372L56.0699 27.0453H60.26L51.6421 6.25345H48.0568ZM47.3008 17.8756L49.2231 12.8002C49.4607 12.1605 49.6767 11.4994 49.8711 10.8383C50.1086 11.5207 50.3894 12.2884 50.7134 13.1201L52.5277 17.8542H47.3008V17.8756Z" fill="white"/>
<path d="M65.2057 6.25345H61.4907V27.0453H65.2057V6.25345Z" fill="white"/>
<path d="M88.9215 15.6364C88.0791 15.2526 86.5888 14.8261 84.3858 14.3356C81.7075 13.7385 80.8868 13.2694 80.6492 13.0561C80.2388 12.6936 80.0445 12.2671 80.0445 11.7126C80.0445 11.0516 80.3468 10.5184 80.93 10.028C81.5564 9.5375 82.6147 9.2816 84.0834 9.2816C85.4873 9.2816 86.5456 9.55882 87.2152 10.1133C87.8847 10.6677 88.2735 11.4781 88.4031 12.587L88.4679 13.0988L92.0533 12.8429L92.0317 12.3311C91.9885 11.0729 91.6213 9.94267 90.9517 8.9404C90.2822 7.93812 89.3318 7.17043 88.1007 6.65863C86.9128 6.16815 85.5089 5.91225 83.9754 5.91225C82.5715 5.91225 81.254 6.14682 80.1093 6.61597C78.9213 7.10645 77.9926 7.8315 77.3446 8.79113C76.7183 9.75075 76.3943 10.7743 76.3943 11.8832C76.3943 12.8855 76.6535 13.8025 77.1718 14.6342C77.6902 15.4445 78.4678 16.1269 79.5045 16.66C80.282 17.0652 81.5996 17.4917 83.5002 17.9395C85.2929 18.366 86.4808 18.6859 86.9992 18.8778C87.7335 19.1551 88.2735 19.4963 88.5543 19.8801C88.8351 20.2426 88.9863 20.6691 88.9863 21.1809C88.9863 21.6714 88.8351 22.1406 88.5327 22.5671C88.2087 22.9936 87.7119 23.3348 87.0424 23.5907C86.3296 23.8679 85.5089 23.9958 84.5586 23.9958C83.5002 23.9958 82.5499 23.8039 81.7075 23.4627C80.9084 23.1215 80.3036 22.6737 79.9365 22.1192C79.5477 21.5648 79.3101 20.8184 79.2021 19.9228L79.1373 19.411L75.6168 19.7095L75.6383 20.2213C75.6815 21.6288 76.0703 22.9296 76.8263 24.0385C77.5822 25.1687 78.619 26.0217 79.9365 26.5762C81.2108 27.1306 82.8307 27.4078 84.6882 27.4078C86.1785 27.4078 87.5608 27.1306 88.7703 26.5762C90.0014 26.0217 90.9517 25.2327 91.6213 24.2091C92.2908 23.2068 92.6148 22.0979 92.6148 20.9464C92.6148 19.7948 92.3124 18.7499 91.6861 17.8329C91.1029 16.9586 90.1742 16.2122 88.9215 15.6364Z" fill="white"/>
<path d="M101.276 11.3715C99.3532 11.3715 97.7118 11.9472 96.3726 13.0988C94.7743 14.4636 93.9536 16.5961 93.9536 19.3896C93.9536 21.9273 94.6448 23.9319 95.9839 25.2967C97.323 26.6828 99.1157 27.3865 101.297 27.3865C102.636 27.3865 103.911 27.0667 105.055 26.4482C106.222 25.8085 107.107 24.9128 107.712 23.7826C108.317 22.6524 108.619 21.117 108.619 19.1977C108.619 16.788 107.928 14.8687 106.567 13.4826C105.185 12.0752 103.414 11.3715 101.276 11.3715ZM104.99 19.283C104.99 21.0103 104.623 22.3112 103.911 23.1215C103.198 23.9319 102.334 24.3157 101.276 24.3157C100.196 24.3157 99.3317 23.9319 98.6189 23.1215C97.9061 22.3112 97.539 21.053 97.539 19.3683C97.539 17.6837 97.9061 16.4255 98.6189 15.6151C99.3317 14.8261 100.196 14.4422 101.276 14.4422C102.334 14.4422 103.198 14.8261 103.911 15.6365C104.623 16.4255 104.99 17.6623 104.99 19.283Z" fill="white"/>
<path d="M119.829 21.2023C119.678 22.2898 119.31 23.0789 118.77 23.5694C118.231 24.0598 117.561 24.2944 116.719 24.2944C115.682 24.2944 114.861 23.9319 114.213 23.1855C113.565 22.4178 113.22 21.117 113.22 19.347C113.22 17.5983 113.565 16.3188 114.256 15.5511C114.926 14.7834 115.79 14.4209 116.87 14.4209C117.561 14.4209 118.123 14.6128 118.619 15.018C119.094 15.4232 119.44 16.0629 119.656 16.8946L119.764 17.3851L123.198 16.852L123.09 16.3189C122.788 14.7621 122.075 13.5253 120.974 12.651C119.872 11.798 118.468 11.3501 116.783 11.3501C115.444 11.3501 114.192 11.67 113.068 12.2884C111.902 12.9282 111.038 13.8878 110.477 15.146C109.937 16.3615 109.656 17.8116 109.656 19.411C109.656 21.9273 110.304 23.8892 111.6 25.2753C112.896 26.6615 114.645 27.3652 116.783 27.3652C118.49 27.3652 119.958 26.8534 121.146 25.8511C122.334 24.8488 123.069 23.4414 123.349 21.6714L123.436 21.1383L119.937 20.6905L119.829 21.2023Z" fill="white"/>
<path d="M127.908 11.6913H124.365V27.0453H127.908V11.6913Z" fill="white"/>
<path d="M127.908 6.25345H124.365V10.1133H127.908V6.25345Z" fill="white"/>
<path d="M140.476 21.7354C140.152 22.6524 139.699 23.3134 139.159 23.7186C138.619 24.1238 137.971 24.3157 137.172 24.3157C136.114 24.3157 135.25 23.9532 134.537 23.2281C133.91 22.5884 133.543 21.6927 133.392 20.5199H144.127L144.148 20.0081C144.148 19.7095 144.17 19.4963 144.17 19.347C144.17 16.852 143.5 14.8901 142.183 13.4826C140.865 12.0752 139.116 11.3715 137.042 11.3715C134.904 11.3715 133.111 12.0965 131.772 13.5253C130.433 14.954 129.742 16.9586 129.742 19.4963C129.742 21.9486 130.412 23.8892 131.751 25.2753C133.09 26.6615 134.926 27.3652 137.172 27.3652C138.965 27.3652 140.476 26.9174 141.643 26.043C142.809 25.1687 143.63 23.9319 144.062 22.3538L144.235 21.7567L140.649 21.3302L140.476 21.7354ZM133.543 17.4704C133.694 16.6174 134.04 15.935 134.602 15.4019C135.271 14.7621 136.07 14.4422 137.064 14.4422C138.144 14.4422 139.008 14.8474 139.699 15.6578C140.044 16.0843 140.304 16.6814 140.433 17.4917H133.543V17.4704Z" fill="white"/>
<path d="M163.415 11.6913L160.196 20.3706C160.024 20.8611 159.851 21.3515 159.678 21.8633C159.505 21.3302 159.333 20.8184 159.138 20.3279L156.006 11.6913H152.507H152.205H150.045V6.2961L146.525 8.38595V11.6913H144.732V14.6342H146.525V22.3325C146.525 23.8892 146.633 24.8702 146.87 25.4033C147.108 25.9577 147.54 26.4056 148.123 26.7468C148.706 27.0666 149.462 27.2372 150.455 27.2372C151.039 27.2372 151.687 27.1519 152.421 27.0027L152.918 26.896L152.399 23.7399L151.881 23.8039C151.471 23.8679 151.125 23.8892 150.887 23.8892C150.542 23.8892 150.391 23.8252 150.326 23.7826C150.218 23.7186 150.153 23.6546 150.11 23.548C150.11 23.5267 150.024 23.3134 150.024 22.4178V14.6342H152.486V12.5017L157.864 26.5335C157.799 26.7041 157.756 26.8534 157.713 26.9387C157.281 28.1329 157.086 28.5167 157.021 28.6234C156.87 28.8793 156.654 29.0712 156.417 29.1991C156.179 29.3271 155.812 29.3911 155.38 29.3911C155.034 29.3911 154.602 29.3271 154.127 29.1991L153.35 28.9859L153.76 32.3766L154.084 32.4832C154.71 32.6964 155.315 32.8031 155.834 32.8031C156.719 32.8031 157.497 32.5898 158.145 32.1633C158.771 31.7368 159.332 31.0971 159.808 30.2227C160.153 29.6043 160.607 28.5167 161.212 26.9174L167 11.67H163.415V11.6913Z" fill="white"/>
</svg>
