<svg width="32" height="32" viewBox="0 0 32 32" fill="none" xmlns="http://www.w3.org/2000/svg">
<g clip-path="url(#clip0_2119_304)">
<path d="M25.9024 6.09478C23.2656 3.45972 19.7371 2 16 2C12.2629 2 8.7534 3.45972 6.09756 6.09478C3.46071 8.72987 2 12.256 2 15.9906C2 19.7252 3.46071 23.2323 6.09756 25.8863C8.73443 28.5214 12.2629 29.9812 16 29.9812C19.7371 29.9812 23.2466 28.5214 25.9024 25.8863C28.5393 23.2513 30 19.7252 30 15.9906C30 12.256 28.5393 8.74883 25.9024 6.09478ZM19.6613 26.948C18.2005 26.4171 17.29 24.3129 17.0244 20.8816L16.9675 19.7252C16.8347 17.2607 16.8347 14.7394 16.9675 12.2749L17.0244 11.1185C17.29 7.68721 18.2195 5.58295 19.6613 5.05214C21.084 4.52133 23.0569 5.46919 25.3713 7.76307C25.8455 8.237 26.2818 8.7678 26.6612 9.33652C27.8943 11.3271 28.5393 13.6399 28.5393 15.9906C28.5393 18.3413 27.8943 20.6541 26.6802 22.6446C26.3008 23.2323 25.8645 23.7631 25.3902 24.2181C23.0379 26.5309 21.0651 27.4598 19.6613 26.948ZM15.0515 19.7252L14.9946 20.8816C14.729 24.3129 13.7995 26.4171 12.3577 26.948C10.9349 27.4788 8.96207 26.5309 6.64769 24.2371C6.17343 23.7631 5.73713 23.2323 5.35773 22.6636C4.12466 20.6731 3.47969 18.3602 3.47969 16.0095C3.47969 13.6588 4.12467 11.346 5.33877 9.35549C5.71816 8.7678 6.15446 8.237 6.62872 7.782C8.52574 5.90523 10.1951 4.91944 11.523 4.91944C11.8076 4.91944 12.0921 4.95735 12.3387 5.05214C13.7995 5.58295 14.71 7.68721 14.9756 11.1185L15.0325 12.2749C15.1653 14.7394 15.1653 17.2418 15.0515 19.7252Z" fill="#1751A6"/>
</g>
<defs>
<clipPath id="clip0_2119_304">
<rect width="28" height="28" fill="white" transform="translate(2 2)"/>
</clipPath>
</defs>
</svg>
